<?xml version="1.0" encoding="UTF-8" standalone="no"?>
<svg
   xmlns:dc="http://purl.org/dc/elements/1.1/"
   xmlns:cc="http://creativecommons.org/ns#"
   xmlns:rdf="http://www.w3.org/1999/02/22-rdf-syntax-ns#"
   xmlns:svg="http://www.w3.org/2000/svg"
   xmlns="http://www.w3.org/2000/svg"
   xmlns:sodipodi="http://sodipodi.sourceforge.net/DTD/sodipodi-0.dtd"
   xmlns:inkscape="http://www.inkscape.org/namespaces/inkscape"
   aria-hidden="true"
   focusable="false"
   data-prefix="fas"
   data-icon="border-none"
   class="svg-inline--fa fa-border-none fa-w-14"
   role="img"
   viewBox="0 0 448 512"
   version="1.1"
   id="svg845"
   sodipodi:docname="border-none-solid.svg"
   inkscape:version="1.0.2-2 (e86c870879, 2021-01-15)">
  <metadata
     id="metadata851">
    <rdf:RDF>
      <cc:Work
         rdf:about="">
        <dc:format>image/svg+xml</dc:format>
        <dc:type
           rdf:resource="http://purl.org/dc/dcmitype/StillImage" />
        <dc:title></dc:title>
      </cc:Work>
    </rdf:RDF>
  </metadata>
  <defs
     id="defs849" />
  <sodipodi:namedview
     pagecolor="#ffffff"
     bordercolor="#666666"
     borderopacity="1"
     objecttolerance="10"
     gridtolerance="10"
     guidetolerance="10"
     inkscape:pageopacity="0"
     inkscape:pageshadow="2"
     inkscape:window-width="2558"
     inkscape:window-height="1528"
     id="namedview847"
     showgrid="false"
     inkscape:zoom="1.4709821"
     inkscape:cx="224"
     inkscape:cy="256"
     inkscape:window-x="-7"
     inkscape:window-y="0"
     inkscape:window-maximized="0"
     inkscape:current-layer="svg845" />
  <path
     id="path843"
     d="M 16,32 A 16,16 0 0 0 0,48 V 80 A 16,16 0 0 0 16,96 H 48 A 16,16 0 0 0 64,80 V 48 A 16,16 0 0 0 48,32 Z m 96,0 A 16,16 0 0 0 96,48 v 32 a 16,16 0 0 0 16,16 h 32 A 16,16 0 0 0 160,80 V 48 A 16,16 0 0 0 144,32 Z m 96,0 a 16,16 0 0 0 -16,16 v 32 a 16,16 0 0 0 16,16 h 32 A 16,16 0 0 0 256,80 V 48 A 16,16 0 0 0 240,32 Z m 96,0 a 16,16 0 0 0 -16,16 v 32 a 16,16 0 0 0 16,16 h 32 A 16,16 0 0 0 352,80 V 48 A 16,16 0 0 0 336,32 Z m 96,0 a 16,16 0 0 0 -16,16 v 32 a 16,16 0 0 0 16,16 h 32 A 16,16 0 0 0 448,80 V 48 A 16,16 0 0 0 432,32 Z M 16,128 A 16,16 0 0 0 0,144 v 32 a 16,16 0 0 0 16,16 H 48 A 16,16 0 0 0 64,176 V 144 A 16,16 0 0 0 48,128 Z m 384,0 a 16,16 0 0 0 -16,16 v 32 a 16,16 0 0 0 16,16 h 32 a 16,16 0 0 0 16,-16 v -32 a 16,16 0 0 0 -16,-16 z m -155.36328,55.61719 c -0.0204,0.0108 -0.0466,0.0352 -0.0801,0.0723 0.005,0.12464 0.0203,0.25783 0.0234,0.38086 0.0872,-0.28877 0.13261,-0.49333 0.0566,-0.45312 z M 16,224 A 16,16 0 0 0 0,240 v 32 a 16,16 0 0 0 16,16 H 48 A 16,16 0 0 0 64,272 V 240 A 16,16 0 0 0 48,224 Z m 384,0 a 16,16 0 0 0 -16,16 v 32 a 16,16 0 0 0 16,16 h 32 a 16,16 0 0 0 16,-16 v -32 a 16,16 0 0 0 -16,-16 z m -251.38281,0.95117 c -0.001,0.01 0.002,0.0333 0.002,0.0488 0.006,-0.0116 0.0162,-0.0189 0.0234,-0.0293 -1.2e-4,-3.6e-4 -0.002,-0.0114 -0.002,-0.0117 -0.0118,-0.0331 -0.0203,-0.0273 -0.0234,-0.008 z m -4.57227,4.69531 c 0.0507,0.0881 0.094,0.1804 0.14649,0.26758 0.0354,0.0589 -0.0252,-0.13542 -0.0371,-0.20312 -0.0314,-0.0163 -0.0761,-0.0462 -0.10938,-0.0645 z M 352,242.61133 c -0.25281,0.10726 -0.50698,0.21362 -0.77344,0.3125 0.2626,0.0874 0.52289,0.17636 0.77344,0.27148 z m -208.63867,14.02734 c 0.009,0.0751 0.0133,0.17255 0.0254,0.22071 0.001,0.006 0.008,0.0174 0.01,0.0234 -0.006,-0.0697 -0.0136,-0.13926 -0.0195,-0.20898 -0.005,-0.0117 -0.0105,-0.0235 -0.0156,-0.0352 z m 2.68945,0.92578 c 0.0138,0.0187 0.0257,0.0394 0.0391,0.0586 0.0799,0.0646 0.16023,0.12885 0.24024,0.19336 -0.0118,-0.0149 -0.0309,-0.0447 -0.041,-0.0566 -0.0444,-0.0527 -0.14665,-0.12756 -0.23828,-0.19532 z M 16,320 A 16,16 0 0 0 0,336 v 32 a 16,16 0 0 0 16,16 H 48 A 16,16 0 0 0 64,368 V 336 A 16,16 0 0 0 48,320 Z m 384,0 a 16,16 0 0 0 -16,16 v 32 a 16,16 0 0 0 16,16 h 32 a 16,16 0 0 0 16,-16 V 336 A 16,16 0 0 0 432,320 Z M 16,416 A 16,16 0 0 0 0,432 v 32 a 16,16 0 0 0 16,16 H 48 A 16,16 0 0 0 64,464 V 432 A 16,16 0 0 0 48,416 Z m 96,0 a 16,16 0 0 0 -16,16 v 32 a 16,16 0 0 0 16,16 h 32 a 16,16 0 0 0 16,-16 v -32 a 16,16 0 0 0 -16,-16 z m 96,0 a 16,16 0 0 0 -16,16 v 32 a 16,16 0 0 0 16,16 h 32 a 16,16 0 0 0 16,-16 v -32 a 16,16 0 0 0 -16,-16 z m 96,0 a 16,16 0 0 0 -16,16 v 32 a 16,16 0 0 0 16,16 h 32 a 16,16 0 0 0 16,-16 v -32 a 16,16 0 0 0 -16,-16 z m 96,0 a 16,16 0 0 0 -16,16 v 32 a 16,16 0 0 0 16,16 h 32 a 16,16 0 0 0 16,-16 v -32 a 16,16 0 0 0 -16,-16 z" />
</svg>
