<?xml version="1.0" encoding="utf-8"?>
<!-- Svg Vector Icons : http://www.onlinewebfonts.com/icon -->
<!DOCTYPE svg PUBLIC "-//W3C//DTD SVG 1.1//EN" "http://www.w3.org/Graphics/SVG/1.1/DTD/svg11.dtd">
<svg version="1.1" xmlns="http://www.w3.org/2000/svg" xmlns:xlink="http://www.w3.org/1999/xlink" x="0px" y="0px" viewBox="0 0 1000 1000" enable-background="new 0 0 1000 1000" xml:space="preserve">
<metadata> Svg Vector Icons : http://www.onlinewebfonts.com/icon </metadata>
<g><g transform="translate(0.000000,512.000000) scale(0.100000,-0.100000)"><path d="M1059.3,4981.1c-445.7-95.6-834-487.8-927.8-935.4c-42.1-200.9-42.1-7661.3,0-7862.2c86.1-411.3,401.7-757.5,832.1-912.5l124.3-44h3912h3912l124.3,44c430.4,155,746.1,501.2,832.1,912.5c42.1,202.8,42.1,7661.3,0,7862.2c-95.7,455.3-482.1,841.7-937.4,937.3C8736,5023.2,1250.6,5023.2,1059.3,4981.1z M8931.1,4344.1c120.5-61.2,237.2-176,296.5-298.4l47.8-95.6l5.7-692.5l5.7-694.4H5000H715v660c0,723.1,3.8,757.5,118.6,922c63.1,93.7,197,191.3,309.9,227.6c63.1,19.1,822.6,22.9,3885.2,21l3806.8-3.8L8931.1,4344.1z M2551.4-1111.6v-3060.7l-692.5,5.7l-694.4,5.7l-97.6,51.7c-145.4,76.5-204.7,133.9-277.4,267.8l-65,120.5l-5.7,2836.9L715,1951h918.2h918.2V-1111.6z M9281.2-883.9l-5.7-2836.9l-51.7-99.5c-67-126.3-162.6-221.9-288.8-288.8l-99.5-51.7l-2835-5.7l-2836.9-3.8v3060.7V1951h3060.7H9285L9281.2-883.9z"/></g></g>
</svg>